<?xml version="1.0" encoding="UTF-8" standalone="no"?>
<svg
   width="1.8in"
   height="1in"
   viewBox="0 0 1.8 1"
   version="1.1"
   id="svg8"
   xmlns="http://www.w3.org/2000/svg"
   xmlns:svg="http://www.w3.org/2000/svg"
   xmlns:rdf="http://www.w3.org/1999/02/22-rdf-syntax-ns#"
   xmlns:cc="http://creativecommons.org/ns#"
   xmlns:dc="http://purl.org/dc/elements/1.1/">
  <defs
     id="defs2">
    <marker
       id="PreviewLineEnd0"
       orient="auto"
       refX="0"
       refY="0"
       style="overflow:visible">
      <path
         d="M 5.77,0 -2.88,5 V -5 Z"
         style="fill:#ff3030;fill-rule:evenodd;stroke:none;marker-start:none"
         transform="matrix(0.38,0,0,0.38,-1.71,0)"
         id="path21" />
    </marker>
    <marker
       id="PreviewLineEnd1"
       orient="auto"
       refX="0"
       refY="0"
       style="overflow:visible">
      <path
         d="M 5.77,0 -2.88,5 V -5 Z"
         style="fill:#ff3030;fill-rule:evenodd;stroke:none;marker-start:none"
         transform="matrix(-0.38,0,0,-0.38,1.71,0)"
         id="path22" />
    </marker>
    <marker
       id="PreviewLineEnd2"
       orient="auto"
       refX="0"
       refY="0"
       style="overflow:visible">
      <path
         d="M 5.77,0 -2.88,5 V -5 Z"
         style="fill:#10cc10;fill-rule:evenodd;stroke:none;marker-start:none"
         transform="matrix(0.38,0,0,0.38,-1.71,0)"
         id="path23" />
    </marker>
  </defs>
  <metadata
     id="metadata5">
    <rdf:RDF>
      <cc:Work
         rdf:about="">
        <dc:format>image/svg+xml</dc:format>
        <dc:type
           rdf:resource="http://purl.org/dc/dcmitype/StillImage" />
      </cc:Work>
    </rdf:RDF>
  </metadata>
  <g
     transform="matrix(1,0,0,-1,0,11)"
     id="g57"
     style="display:inline">
    <path
       d="m 1.6823055,10.492068 a 0.19638685,0.19638685 0 0 0 -0.016224,-0.07816"
       style="fill:none;stroke:#ff3030;stroke-width:0.03125;stroke-linecap:butt;stroke-linejoin:miter;stroke-miterlimit:4;stroke-opacity:1;marker-end:url(#PreviewLineEnd0)"
       id="path25" />
    <path
       d="m 1.6660819,10.413908 a 0.29100718,0.29100718 0 0 0 -0.045661,-0.07315"
       style="fill:none;stroke:#ff3030;stroke-width:0.03125;stroke-linecap:butt;stroke-linejoin:miter;stroke-miterlimit:4;stroke-opacity:1;marker-end:url(#PreviewLineEnd0)"
       id="path26" />
    <path
       d="m 1.6204205,10.340757 a 0.4043285,0.4043285 0 0 0 -0.072387,-0.0664"
       style="fill:none;stroke:#ff3030;stroke-width:0.03125;stroke-linecap:butt;stroke-linejoin:miter;stroke-miterlimit:4;stroke-opacity:1;marker-end:url(#PreviewLineEnd0)"
       id="path27" />
    <path
       d="m 1.5480331,10.274357 a 0.71058083,0.71058083 0 0 0 -0.095947,-0.05773"
       style="fill:none;stroke:#ff3030;stroke-width:0.03125;stroke-linecap:butt;stroke-linejoin:miter;stroke-miterlimit:4;stroke-opacity:1;marker-end:url(#PreviewLineEnd0)"
       id="path28" />
    <path
       d="M 1.4520865,10.21663 A 0.88484303,0.88484303 0 0 0 1.3361492,10.16873"
       style="fill:none;stroke:#ff3030;stroke-width:0.03125;stroke-linecap:butt;stroke-linejoin:miter;stroke-miterlimit:4;stroke-opacity:1;marker-end:url(#PreviewLineEnd0)"
       id="path29" />
    <path
       d="M 1.3361492,10.168727 A 1.2358128,1.2358128 0 0 0 1.2032845,10.132649"
       style="fill:none;stroke:#ff3030;stroke-width:0.03125;stroke-linecap:butt;stroke-linejoin:miter;stroke-miterlimit:4;stroke-opacity:1;marker-end:url(#PreviewLineEnd0)"
       id="path30" />
    <path
       d="M 1.2032845,10.132649 A 1.3706654,1.3706654 0 0 0 1.0568318,10.109718"
       style="fill:none;stroke:#ff3030;stroke-width:0.03125;stroke-linecap:butt;stroke-linejoin:miter;stroke-miterlimit:4;stroke-opacity:1;marker-end:url(#PreviewLineEnd0)"
       id="path31" />
    <path
       d="m 1.0568318,10.109718 a 1.5522332,1.5522332 0 0 0 -0.15683615,-0.0079"
       style="fill:none;stroke:#ff3030;stroke-width:0.03125;stroke-linecap:butt;stroke-linejoin:miter;stroke-miterlimit:4;stroke-opacity:1;marker-end:url(#PreviewLineEnd0)"
       id="path32" />
    <path
       d="m 0.89999565,10.101774 a 1.5522332,1.5522332 0 0 0 -0.1568362,0.0079"
       style="fill:none;stroke:#ff3030;stroke-width:0.03125;stroke-linecap:butt;stroke-linejoin:miter;stroke-miterlimit:4;stroke-opacity:1;marker-end:url(#PreviewLineEnd0)"
       id="path33" />
    <path
       d="m 0.74315945,10.109718 a 1.3706654,1.3706654 0 0 0 -0.1464527,0.02293"
       style="fill:none;stroke:#ff3030;stroke-width:0.03125;stroke-linecap:butt;stroke-linejoin:miter;stroke-miterlimit:4;stroke-opacity:1;marker-end:url(#PreviewLineEnd0)"
       id="path34" />
    <path
       d="m 0.59670675,10.132649 a 1.2358128,1.2358128 0 0 0 -0.1328647,0.03608"
       style="fill:none;stroke:#ff3030;stroke-width:0.03125;stroke-linecap:butt;stroke-linejoin:miter;stroke-miterlimit:4;stroke-opacity:1;marker-end:url(#PreviewLineEnd0)"
       id="path35" />
    <path
       d="m 0.46384205,10.168727 a 0.88484303,0.88484303 0 0 0 -0.1159373,0.0479"
       style="fill:none;stroke:#ff3030;stroke-width:0.03125;stroke-linecap:butt;stroke-linejoin:miter;stroke-miterlimit:4;stroke-opacity:1;marker-end:url(#PreviewLineEnd0)"
       id="path36" />
    <path
       d="m 0.34790475,10.21663 a 0.71058083,0.71058083 0 0 0 -0.095947,0.05773"
       style="fill:none;stroke:#ff3030;stroke-width:0.03125;stroke-linecap:butt;stroke-linejoin:miter;stroke-miterlimit:4;stroke-opacity:1;marker-end:url(#PreviewLineEnd0)"
       id="path37" />
    <path
       d="m 0.25195815,10.274357 a 0.4043285,0.4043285 0 0 0 -0.072387,0.0664"
       style="fill:none;stroke:#ff3030;stroke-width:0.03125;stroke-linecap:butt;stroke-linejoin:miter;stroke-miterlimit:4;stroke-opacity:1;marker-end:url(#PreviewLineEnd0)"
       id="path38" />
    <path
       d="m 0.17957075,10.340757 a 0.29100718,0.29100718 0 0 0 -0.045661,0.07315"
       style="fill:none;stroke:#ff3030;stroke-width:0.03125;stroke-linecap:butt;stroke-linejoin:miter;stroke-miterlimit:4;stroke-opacity:1;marker-end:url(#PreviewLineEnd0)"
       id="path39" />
    <path
       d="m 0.13390935,10.413908 a 0.19638685,0.19638685 0 0 0 -0.016224,0.07816"
       style="fill:none;stroke:#ff3030;stroke-width:0.03125;stroke-linecap:butt;stroke-linejoin:miter;stroke-miterlimit:4;stroke-opacity:1;marker-end:url(#PreviewLineEnd0)"
       id="path40" />
    <path
       d="m 0.11768575,10.492068 a 0.19638685,0.19638685 0 0 0 0.016224,0.07816"
       style="fill:none;stroke:#ff3030;stroke-width:0.03125;stroke-linecap:butt;stroke-linejoin:miter;stroke-miterlimit:4;stroke-opacity:1;marker-end:url(#PreviewLineEnd0)"
       id="path41" />
    <path
       d="m 0.13390935,10.570228 a 0.29100718,0.29100718 0 0 0 0.045661,0.07315"
       style="fill:none;stroke:#ff3030;stroke-width:0.03125;stroke-linecap:butt;stroke-linejoin:miter;stroke-miterlimit:4;stroke-opacity:1;marker-end:url(#PreviewLineEnd0)"
       id="path42" />
    <path
       d="m 0.17957075,10.643378 a 0.4043285,0.4043285 0 0 0 0.072387,0.0664"
       style="fill:none;stroke:#ff3030;stroke-width:0.03125;stroke-linecap:butt;stroke-linejoin:miter;stroke-miterlimit:4;stroke-opacity:1;marker-end:url(#PreviewLineEnd0)"
       id="path43" />
    <path
       d="m 0.25195815,10.709778 a 0.71058083,0.71058083 0 0 0 0.095947,0.05773"
       style="fill:none;stroke:#ff3030;stroke-width:0.03125;stroke-linecap:butt;stroke-linejoin:miter;stroke-miterlimit:4;stroke-opacity:1;marker-end:url(#PreviewLineEnd0)"
       id="path44" />
    <path
       d="m 0.34790475,10.767505 a 0.88484303,0.88484303 0 0 0 0.1159373,0.0479"
       style="fill:none;stroke:#ff3030;stroke-width:0.03125;stroke-linecap:butt;stroke-linejoin:miter;stroke-miterlimit:4;stroke-opacity:1;marker-end:url(#PreviewLineEnd0)"
       id="path45" />
    <path
       d="m 0.46384205,10.815408 a 1.2358128,1.2358128 0 0 0 0.1328647,0.03608"
       style="fill:none;stroke:#ff3030;stroke-width:0.03125;stroke-linecap:butt;stroke-linejoin:miter;stroke-miterlimit:4;stroke-opacity:1;marker-end:url(#PreviewLineEnd0)"
       id="path46" />
    <path
       d="m 0.59670675,10.851486 a 1.3706654,1.3706654 0 0 0 0.1464527,0.02293"
       style="fill:none;stroke:#ff3030;stroke-width:0.03125;stroke-linecap:butt;stroke-linejoin:miter;stroke-miterlimit:4;stroke-opacity:1;marker-end:url(#PreviewLineEnd0)"
       id="path47" />
    <path
       d="m 0.74315945,10.874417 a 1.5522332,1.5522332 0 0 0 0.1568362,0.0079"
       style="fill:none;stroke:#ff3030;stroke-width:0.03125;stroke-linecap:butt;stroke-linejoin:miter;stroke-miterlimit:4;stroke-opacity:1;marker-end:url(#PreviewLineEnd0)"
       id="path48" />
    <path
       d="m 0.89999565,10.882361 a 1.5522332,1.5522332 0 0 0 0.15683615,-0.0079"
       style="fill:none;stroke:#ff3030;stroke-width:0.03125;stroke-linecap:butt;stroke-linejoin:miter;stroke-miterlimit:4;stroke-opacity:1;marker-end:url(#PreviewLineEnd0)"
       id="path49" />
    <path
       d="m 1.0568318,10.874417 a 1.3706654,1.3706654 0 0 0 0.1464527,-0.02293"
       style="fill:none;stroke:#ff3030;stroke-width:0.03125;stroke-linecap:butt;stroke-linejoin:miter;stroke-miterlimit:4;stroke-opacity:1;marker-end:url(#PreviewLineEnd0)"
       id="path50" />
    <path
       d="m 1.2032845,10.851486 a 1.2358128,1.2358128 0 0 0 0.1328647,-0.03608"
       style="fill:none;stroke:#ff3030;stroke-width:0.03125;stroke-linecap:butt;stroke-linejoin:miter;stroke-miterlimit:4;stroke-opacity:1;marker-end:url(#PreviewLineEnd0)"
       id="path51" />
    <path
       d="m 1.3361492,10.815408 a 0.88484303,0.88484303 0 0 0 0.1159373,-0.0479"
       style="fill:none;stroke:#ff3030;stroke-width:0.03125;stroke-linecap:butt;stroke-linejoin:miter;stroke-miterlimit:4;stroke-opacity:1;marker-end:url(#PreviewLineEnd0)"
       id="path52" />
    <path
       d="m 1.4520865,10.767505 a 0.71058083,0.71058083 0 0 0 0.095947,-0.05773"
       style="fill:none;stroke:#ff3030;stroke-width:0.03125;stroke-linecap:butt;stroke-linejoin:miter;stroke-miterlimit:4;stroke-opacity:1;marker-end:url(#PreviewLineEnd0)"
       id="path53" />
    <path
       d="m 1.5480331,10.709778 a 0.4043285,0.4043285 0 0 0 0.072387,-0.0664"
       style="fill:none;stroke:#ff3030;stroke-width:0.03125;stroke-linecap:butt;stroke-linejoin:miter;stroke-miterlimit:4;stroke-opacity:1;marker-end:url(#PreviewLineEnd0)"
       id="path54" />
    <path
       d="m 1.6204205,10.643378 a 0.29100718,0.29100718 0 0 0 0.045661,-0.07315"
       style="fill:none;stroke:#ff3030;stroke-width:0.03125;stroke-linecap:butt;stroke-linejoin:miter;stroke-miterlimit:4;stroke-opacity:1;marker-end:url(#PreviewLineEnd0)"
       id="path55" />
    <path
       d="m 1.6660819,10.570228 a 0.19638685,0.19638685 0 0 0 0.016224,-0.07816"
       style="fill:none;stroke:#ff3030;stroke-width:0.03125;stroke-linecap:butt;stroke-linejoin:miter;stroke-miterlimit:4;stroke-opacity:1;marker-end:url(#PreviewLineEnd0)"
       id="path56" />
    <path
       d="m 1.6823055,10.492068 a 0.19638685,0.19638685 0 0 0 -0.016224,-0.07816"
       style="fill:none;stroke:#ff3030;stroke-width:0.03125;stroke-linecap:butt;stroke-linejoin:miter;stroke-miterlimit:4;stroke-opacity:1;marker-end:url(#PreviewLineEnd0)"
       id="path57" />
  </g>
</svg>
